<svg width="62" height="50" viewBox="0 0 62 50" fill="none" xmlns="http://www.w3.org/2000/svg">
<path d="M61.7411 5.94765C59.4875 6.94693 57.066 7.62229 54.5243 7.92612C57.1188 6.3711 59.1109 3.90866 60.049 0.974686C57.5826 2.43829 54.8842 3.46949 52.0703 4.02373C49.7782 1.58186 46.5129 0.0557861 42.8987 0.0557861C35.9595 0.0557861 30.3334 5.68162 30.3334 12.6204C30.3334 13.6053 30.4447 14.5642 30.6588 15.484C20.2162 14.9599 10.9578 9.9577 4.76047 2.35579C3.67913 4.21153 3.05951 6.37014 3.05951 8.67253C3.05951 13.0319 5.27793 16.8776 8.64922 19.1309C6.65389 19.0684 4.70245 18.5295 2.95784 17.5591C2.95712 17.6118 2.95712 17.6644 2.95712 17.7173C2.95712 23.8051 7.28822 28.8835 13.0361 30.0378C11.1858 30.541 9.24499 30.6147 7.3619 30.2532C8.96071 35.245 13.6011 38.8776 19.0992 38.9792C14.799 42.3491 9.38104 44.3579 3.49444 44.3579C2.48008 44.3579 1.48008 44.2984 0.49707 44.1823C6.0576 47.7474 12.6621 49.8276 19.7578 49.8276C42.8696 49.8276 55.5076 30.6814 55.5076 14.0776C55.5076 13.5326 55.4956 12.9907 55.4712 12.452C57.9311 10.6737 60.0543 8.47113 61.7411 5.94765" fill="#55ACEE"/>
</svg>
